<?xml version="1.0" encoding="utf-8"?>
<!-- Generator: Adobe Illustrator 16.0.0, SVG Export Plug-In . SVG Version: 6.00 Build 0)  -->
<!DOCTYPE svg PUBLIC "-//W3C//DTD SVG 1.1//EN" "http://www.w3.org/Graphics/SVG/1.1/DTD/svg11.dtd">
<svg version="1.1" id="Layer_1" xmlns="http://www.w3.org/2000/svg" xmlns:xlink="http://www.w3.org/1999/xlink" x="0px" y="0px"
	 width="1280px" height="800px" viewBox="0 0 1280 800" enable-background="new 0 0 1280 800" xml:space="preserve">
<g id="XMLID_1_">
	<g>
		<path fill="#FFFFFF" d="M793.16,264.75l0.67,247.75h-0.34c0-17.54-64.54-31.75-144.16-31.75s-144.16,14.21-144.16,31.75
			l-0.66-247.34c1,17.35,65.15,31.34,144.15,31.34c79.62,0,144.17-14.21,144.17-31.75H793.16z"/>
		<path fill="#FFFFFF" d="M649.33,480.75c79.62,0,144.16,14.21,144.16,31.75s-64.54,31.75-144.16,31.75s-144.16-14.21-144.16-31.75
			S569.71,480.75,649.33,480.75z"/>
		<path fill="#FFFFFF" d="M648.66,233c79.62,0,144.17,14.21,144.17,31.75s-64.55,31.75-144.17,31.75
			c-79,0-143.15-13.99-144.15-31.34c0-0.02,0-0.03,0-0.05v-0.65c0-0.04,0-0.08,0-0.12C505.51,246.99,569.66,233,648.66,233z"/>
		<path fill="#FFFFFF" d="M504.51,265.11c-0.01-0.12-0.01-0.24-0.01-0.36c0-0.1,0-0.19,0.01-0.29V265.11z"/>
	</g>
	<g>
		
			<line fill="none" stroke="#000000" stroke-width="0.4664" stroke-linecap="round" stroke-linejoin="round" x1="504.51" y1="265.16" x2="505.17" y2="512.5"/>
		
			<line fill="none" stroke="#000000" stroke-width="0.4664" stroke-linecap="round" stroke-linejoin="round" x1="504.51" y1="264.46" x2="504.51" y2="265.11"/>
		
			<line fill="none" stroke="#000000" stroke-width="0.4664" stroke-linecap="round" stroke-linejoin="round" x1="504.5" y1="261.86" x2="504.51" y2="264.34"/>
		<polyline fill="none" stroke="#000000" stroke-width="0.4642" stroke-linecap="round" stroke-linejoin="round" points="
			793.16,264.75 793.83,512.5 793.83,513 		"/>
		<path fill="none" stroke="#000000" stroke-width="0.4997" stroke-linecap="round" stroke-linejoin="round" d="M792.83,264.75
			c0-17.54-64.55-31.75-144.17-31.75c-79,0-143.15,13.99-144.15,31.34c0,0.04,0,0.08,0,0.12c-0.01,0.1-0.01,0.19-0.01,0.29
			c0,0.12,0,0.24,0.01,0.36c0,0.02,0,0.03,0,0.05c1,17.35,65.15,31.34,144.15,31.34C728.28,296.5,792.83,282.29,792.83,264.75z"/>
		<path fill="none" stroke="#000000" stroke-width="0.4997" stroke-linecap="round" stroke-linejoin="round" d="M793.49,512.5
			c0-17.54-64.54-31.75-144.16-31.75s-144.16,14.21-144.16,31.75s64.54,31.75,144.16,31.75S793.49,530.04,793.49,512.5z"/>
	</g>
</g>
<g id="XMLID_2_">
	<g>
		<path fill="#420012" d="M648.165,295.965c-65.145,0-117.945-12.334-117.945-12.334c0-6.812,52.8-12.338,117.945-12.338
			c65.136,0,117.945,5.526,117.945,12.338C766.11,283.631,713.301,295.965,648.165,295.965z"/>
	</g>
	<g>
		<path fill="none" stroke="#000000" stroke-width="0.2817" stroke-linecap="round" stroke-linejoin="round" d="M766.11,283.631
			c0-6.812-52.81-12.338-117.945-12.338c-65.145,0-117.945,5.526-117.945,12.338c0,0,52.8,12.334,117.945,12.334
			C713.301,295.965,766.11,283.631,766.11,283.631z"/>
	</g>
</g>
<g id="XMLID_3_">
	<g>
		<path d="M793.878,307.33c57.059,0,103.486,38.95,103.486,86.83c0,47.88-46.428,86.84-103.486,86.84
			c-0.167,0-0.298-0.11-0.298-0.25v-25.4c0,0.141,0.131,0.25,0.298,0.25c0.096,0,0.203,0,0.298,0v24.9
			c56.594-0.14,102.593-38.82,102.593-86.34c0-47.52-45.999-86.19-102.593-86.33v24.9c-0.095,0-0.202,0-0.298,0
			c-0.167,0-0.298,0.11-0.298,0.25v-25.4C793.58,307.44,793.711,307.33,793.878,307.33z"/>
		<path fill="#FFFFFF" d="M794.176,307.83c56.594,0.14,102.593,38.81,102.593,86.33c0,47.52-45.999,86.2-102.593,86.34v-24.9
			c40.231-0.14,72.908-27.64,72.908-61.439c0-33.79-32.677-61.29-72.908-61.43V307.83z"/>
		<path d="M794.176,332.73c40.231,0.14,72.908,27.64,72.908,61.43c0,33.8-32.677,61.3-72.908,61.439v-0.5
			c39.898-0.14,72.312-27.42,72.312-60.939c0-33.51-32.413-60.79-72.312-60.93V332.73z"/>
		<path d="M794.176,333.23V455.1v0.5c-0.095,0-0.202,0-0.298,0c-0.167,0-0.298-0.109-0.298-0.25V332.98
			c0-0.14,0.131-0.25,0.298-0.25c0.096,0,0.203,0,0.298,0V333.23z"/>
	</g>
	<g>
	</g>
</g>
</svg>
