<?xml version="1.0" encoding="utf-8"?>
<!-- Generator: Adobe Illustrator 16.0.0, SVG Export Plug-In . SVG Version: 6.00 Build 0)  -->
<!DOCTYPE svg PUBLIC "-//W3C//DTD SVG 1.1//EN" "http://www.w3.org/Graphics/SVG/1.1/DTD/svg11.dtd">
<svg version="1.1" id="Layer_1" xmlns="http://www.w3.org/2000/svg" xmlns:xlink="http://www.w3.org/1999/xlink" x="0px" y="0px"
	 width="40.112px" height="33.708px" viewBox="985.108 549.84 40.112 33.708" enable-background="new 985.108 549.84 40.112 33.708"
	 xml:space="preserve">
<g id="XMLID_1_">
	<g>
		<path fill="#FFFFFF" d="M1014.994,552.414v28.56c0,1.404-6.683,2.543-14.928,2.543c-8.244,0-14.927-1.139-14.927-2.543v-28.56
			c0-1.404,6.681-2.543,14.927-2.543C1008.311,549.87,1014.994,551.009,1014.994,552.414z"/>
	</g>
	<g>
		<path fill="none" stroke="#FFFFFF" stroke-width="0.0628" stroke-linejoin="bevel" stroke-miterlimit="10" d="M1014.994,552.414
			v28.56c0,1.404-6.683,2.543-14.928,2.543c-8.244,0-14.927-1.139-14.927-2.543v-28.56c0-1.404,6.681-2.543,14.927-2.543
			C1008.311,549.87,1014.994,551.009,1014.994,552.414z"/>
	</g>
</g>
<g>
	<path fill="#3D000D" d="M1000.066,554.803c-3.417,0-6.631-0.148-9.049-0.421c-2.33-0.262-3.722-0.629-3.722-0.981
		c0-0.354,1.392-0.722,3.722-0.984c2.418-0.269,5.63-0.42,9.049-0.42c3.418,0,6.632,0.15,9.048,0.42
		c2.331,0.263,3.722,0.63,3.722,0.984c0,0.353-1.391,0.719-3.722,0.981C1006.698,554.653,1003.484,554.803,1000.066,554.803z"/>
	<path d="M1000.066,552.03c3.416,0,6.63,0.148,9.045,0.42c1.174,0.132,2.092,0.286,2.735,0.455c0.866,0.23,0.961,0.423,0.961,0.495
		c0,0.071-0.095,0.265-0.961,0.495c-0.644,0.169-1.562,0.323-2.735,0.454c-2.415,0.271-5.627,0.421-9.045,0.421
		c-3.416,0-6.63-0.15-9.045-0.421c-1.174-0.131-2.093-0.285-2.736-0.454c-0.866-0.231-0.961-0.424-0.961-0.495
		c0-0.072,0.095-0.266,0.961-0.495c0.642-0.169,1.562-0.323,2.736-0.455C993.436,552.179,996.649,552.03,1000.066,552.03
		 M1000.066,551.964c-7.069,0-12.799,0.643-12.799,1.437c0,0.792,5.729,1.434,12.799,1.434c7.07,0,12.8-0.643,12.8-1.434
		C1012.866,552.606,1007.136,551.964,1000.066,551.964L1000.066,551.964z"/>
</g>
<path fill="#FFFFFF" stroke="#FFFFFF" stroke-width="0.0628" stroke-linejoin="bevel" stroke-miterlimit="10" d="M1014.994,559.103
	c3.524,0,6.381,3.197,6.381,7.14c0,3.944-2.856,7.14-6.381,7.14v4.269c5.631,0,10.195-5.108,10.195-11.408
	c0-6.299-4.564-11.407-10.195-11.407"/>
</svg>
