<?xml version="1.0" encoding="utf-8"?>
<!-- Generator: Adobe Illustrator 16.0.0, SVG Export Plug-In . SVG Version: 6.00 Build 0)  -->
<!DOCTYPE svg PUBLIC "-//W3C//DTD SVG 1.1//EN" "http://www.w3.org/Graphics/SVG/1.1/DTD/svg11.dtd">
<svg version="1.1" id="Layer_1" xmlns="http://www.w3.org/2000/svg" xmlns:xlink="http://www.w3.org/1999/xlink" x="0px" y="0px"
	 width="266.893px" height="266.895px" viewBox="0 0 266.893 266.895" enable-background="new 0 0 266.893 266.895"
	 xml:space="preserve">
<g id="XMLID_1_">
	<g>
		<path fill="#3D5A98" d="M266.897,14.727v237.44c0,8.13-6.601,14.73-14.73,14.73H14.727c-8.13,0-14.73-6.601-14.73-14.73V14.727
			c0-8.13,6.6-14.73,14.73-14.73h237.44C260.296-0.003,266.897,6.597,266.897,14.727z"/>
	</g>
	<g>
	</g>
</g>
<path id="f" fill="#FFFFFF" d="M184.152,266.895V163.539h34.692l5.194-40.28h-39.887V97.542c0-11.662,3.238-19.609,19.962-19.609
	l21.329-0.01V41.897c-3.689-0.49-16.351-1.587-31.08-1.587c-30.753,0-51.807,18.771-51.807,53.244v29.705h-34.781v40.28h34.781
	v103.355H184.152z"/>
</svg>
