<?xml version="1.0" encoding="utf-8"?>
<!-- Generator: Adobe Illustrator 16.0.0, SVG Export Plug-In . SVG Version: 6.00 Build 0)  -->
<!DOCTYPE svg PUBLIC "-//W3C//DTD SVG 1.1//EN" "http://www.w3.org/Graphics/SVG/1.1/DTD/svg11.dtd">
<svg version="1.1" id="Logo_FIXED" xmlns="http://www.w3.org/2000/svg" xmlns:xlink="http://www.w3.org/1999/xlink" x="0px" y="0px"
	 width="1280px" height="800px" viewBox="0 0 1280 800" enable-background="new 0 0 1280 800" xml:space="preserve">
<title>Twitter_Logo_Blue</title>
<g id="XMLID_1_">
	<g>
		<g>
			<g>
				<path fill="#1EB0FF" d="M990,0c27.5,0,50,22.5,50,50v700c0,27.5-22.5,50-50,50H290c-27.5,0-50-22.5-50-50V50
					c0-27.5,22.5-50,50-50H990z"/>
			</g>
		</g>
		<g>
			<g>
				<path fill="none" stroke="#FFFFFF" stroke-miterlimit="10" d="M240,50c0-27.5,22.5-50,50-50h700c27.5,0,50,22.5,50,50v700
					c0,27.5-22.5,50-50,50H290c-27.5,0-50-22.5-50-50V50z"/>
			</g>
		</g>
	</g>
</g>
<path fill="#FFFFFF" d="M546.24,608.18c188.68,0,291.88-156.319,291.88-291.88c0-4.439,0-8.86-0.3-13.26
	c20.076-14.522,37.406-32.502,51.18-53.1c-18.723,8.296-38.583,13.737-58.92,16.14c21.415-12.82,37.442-32.984,45.1-56.74
	c-20.137,11.949-42.167,20.371-65.14,24.9c-38.85-41.311-103.833-43.305-145.144-4.455c-26.642,25.055-37.945,62.39-29.677,98.015
	c-82.481-4.135-159.33-43.093-211.42-107.18c-27.228,46.873-13.32,106.837,31.76,136.939c-16.325-0.483-32.294-4.888-46.56-12.84
	c0,0.42,0,0.86,0,1.3c0.014,48.832,34.436,90.892,82.3,100.561c-15.103,4.119-30.948,4.721-46.319,1.76
	c13.438,41.789,51.951,70.416,95.84,71.24c-36.325,28.549-81.199,44.047-127.4,44c-8.162-0.016-16.315-0.51-24.42-1.48
	c46.913,30.105,101.498,46.074,157.24,46"/>
</svg>
