<?xml version="1.0" encoding="utf-8"?>
<!-- Generator: Adobe Illustrator 16.0.0, SVG Export Plug-In . SVG Version: 6.00 Build 0)  -->
<!DOCTYPE svg PUBLIC "-//W3C//DTD SVG 1.1//EN" "http://www.w3.org/Graphics/SVG/1.1/DTD/svg11.dtd">
<svg version="1.1" xmlns="http://www.w3.org/2000/svg" xmlns:xlink="http://www.w3.org/1999/xlink" x="0px" y="0px" width="144px"
	 height="144px" viewBox="0 0 144 144" enable-background="new 0 0 144 144" xml:space="preserve">
<g id="Dark_Blue_1_" enable-background="new    ">
	<g id="Dark_Blue">
		<g>
			<g>
				<path fill="#1DA1F2" d="M15,0C6.75,0,0,6.75,0,15v114c0,8.25,6.75,15,15,15h114c8.25,0,15-6.75,15-15V15c0-8.25-6.75-15-15-15
					H15z"/>
				<path fill="#1DA1F2" d="M15,0C6.75,0,0,6.75,0,15v114c0,8.25,6.75,15,15,15h114c8.25,0,15-6.75,15-15V15c0-8.25-6.75-15-15-15
					H15z"/>
			</g>
		</g>
	</g>
	<g id="Logo__x2014__FIXED">
		<g>
			<path fill="#FFFFFF" d="M116,43.292c-3.309,1.468-6.869,2.458-10.604,2.904c3.812-2.284,6.738-5.898,8.119-10.206
				c-3.568,2.113-7.519,3.65-11.725,4.479c-3.369-3.586-8.168-5.829-13.479-5.829c-10.197,0-18.467,8.263-18.467,18.447
				c0,1.448,0.162,2.856,0.479,4.207c-15.346-0.771-28.954-8.112-38.06-19.275c-1.587,2.726-2.501,5.894-2.501,9.272
				c0,6.401,3.26,12.051,8.217,15.356c-3.028-0.093-5.874-0.925-8.363-2.308c-0.004,0.077-0.004,0.154-0.004,0.235
				c0,8.936,6.366,16.396,14.814,18.087c-1.551,0.422-3.183,0.648-4.868,0.648c-1.189,0-2.347-0.117-3.471-0.332
				c2.351,7.329,9.167,12.663,17.25,12.813c-6.321,4.948-14.282,7.897-22.934,7.897c-1.49,0-2.959-0.085-4.405-0.256
				c8.172,5.232,17.875,8.287,28.304,8.287c33.963,0,52.538-28.113,52.538-52.491c0-0.8-0.017-1.595-0.053-2.386
				C110.394,50.24,113.527,46.991,116,43.292z"/>
		</g>
	</g>
</g>
<g id="Logo__x2014__FIXED_1_" enable-background="new    ">
</g>
</svg>
