<?xml version="1.0" encoding="utf-8"?>
<!-- Generator: Adobe Illustrator 16.0.0, SVG Export Plug-In . SVG Version: 6.00 Build 0)  -->
<!DOCTYPE svg PUBLIC "-//W3C//DTD SVG 1.1//EN" "http://www.w3.org/Graphics/SVG/1.1/DTD/svg11.dtd">
<svg version="1.1" id="Layer_1" xmlns="http://www.w3.org/2000/svg" xmlns:xlink="http://www.w3.org/1999/xlink" x="0px" y="0px"
	 width="1280px" height="800px" viewBox="0 0 1280 800" enable-background="new 0 0 1280 800" xml:space="preserve">
<title>Twitter_Logo_White-on-Blue</title>
<g>
	<g id="XMLID_1_">
		<g>
			<path fill="#FFFFFF" d="M414.42,558.58c46.2,0.05,91.08-15.45,127.4-44c-43.89-0.82-82.4-29.45-95.84-71.24
				c15.37,2.96,31.22,2.36,46.32-1.76c-47.86-9.67-82.29-51.73-82.3-100.56c0-0.44,0-0.88,0-1.3c14.27,7.95,30.23,12.36,46.56,12.84
				c-45.08-30.1-58.99-90.07-31.76-136.94c52.09,64.09,128.94,103.05,211.42,107.18c-8.27-35.63,3.03-72.96,29.68-98.01
				c41.31-38.85,106.29-36.86,145.14,4.45c22.97-4.53,45-12.95,65.14-24.9c-7.66,23.76-23.68,43.92-45.1,56.74
				c20.34-2.4,40.2-7.84,58.92-16.14c-13.77,20.6-31.1,38.58-51.18,53.1c0.3,4.4,0.3,8.82,0.3,13.26
				c0,135.561-103.2,291.88-291.88,291.88v-0.08c-55.74,0.07-110.33-15.89-157.24-46C398.1,558.07,406.26,558.56,414.42,558.58z"/>
			<path fill="#1EB0FF" d="M414.42,558.58c-8.16-0.021-16.32-0.51-24.42-1.48c46.91,30.11,101.5,46.07,157.24,46v0.08
				c188.68,0,291.88-156.319,291.88-291.88c0-4.44,0-8.86-0.3-13.26c20.08-14.52,37.41-32.5,51.18-53.1
				c-18.72,8.3-38.58,13.74-58.92,16.14c21.42-12.82,37.439-32.98,45.1-56.74c-20.14,11.95-42.17,20.37-65.14,24.9
				c-38.85-41.31-103.83-43.3-145.14-4.45c-26.65,25.05-37.95,62.38-29.68,98.01c-82.48-4.13-159.33-43.09-211.42-107.18
				c-27.23,46.87-13.32,106.84,31.76,136.94c-16.33-0.48-32.29-4.89-46.56-12.84c0,0.42,0,0.86,0,1.3
				c0.01,48.83,34.44,90.89,82.3,100.56c-15.1,4.12-30.95,4.72-46.32,1.76c13.44,41.79,51.95,70.42,95.84,71.24
				C505.5,543.13,460.62,558.63,414.42,558.58z M1040,0v800H240V0H1040z"/>
		</g>
		<g>
			<rect x="240" fill="none" stroke="#FFFFFF" stroke-miterlimit="10" width="800" height="800"/>
			<path fill="none" stroke="#FFFFFF" stroke-miterlimit="10" d="M890,244.94c-13.77,20.6-31.1,38.58-51.18,53.1
				c0.3,4.4,0.3,8.82,0.3,13.26c0,135.561-103.2,291.88-291.88,291.88v-0.08c-55.74,0.07-110.33-15.89-157.24-46
				c8.1,0.971,16.26,1.46,24.42,1.48c46.2,0.05,91.08-15.45,127.4-44c-43.89-0.82-82.4-29.45-95.84-71.24
				c15.37,2.96,31.22,2.36,46.32-1.76c-47.86-9.67-82.29-51.73-82.3-100.56c0-0.44,0-0.88,0-1.3c14.27,7.95,30.23,12.36,46.56,12.84
				c-45.08-30.1-58.99-90.07-31.76-136.94c52.09,64.09,128.94,103.05,211.42,107.18c-8.27-35.63,3.03-72.96,29.68-98.01
				c41.31-38.85,106.29-36.86,145.14,4.45c22.97-4.53,45-12.95,65.14-24.9c-7.66,23.76-23.68,43.92-45.1,56.74
				C851.42,258.68,871.28,253.24,890,244.94z"/>
		</g>
	</g>
</g>
</svg>
